<svg xmlns="http://www.w3.org/2000/svg" xmlns:xlink="http://www.w3.org/1999/xlink"><symbol id="cart" viewBox="0 0 28 29"><g fill="none">
<path fill-rule="evenodd" clip-rule="evenodd" d="M11.2214 17.4665C11.3829 17.9206 11.8452 18.1949 12.3212 18.119L25.0874 16.0828C25.5004 16.017 25.8288 15.701 25.9106 15.2909L27.2654 8.49865C27.3875 7.88644 26.925 7.31324 26.3008 7.30317L8.94122 7.02324C8.24354 7.01199 7.74913 7.70067 7.98289 8.35812L11.2214 17.4665Z" fill="white"/>
<path fill-rule="evenodd" clip-rule="evenodd" d="M11.8262 25.3593C13.1109 25.3593 14.1523 24.3178 14.1523 23.0331C14.1523 21.7484 13.1109 20.707 11.8262 20.707C10.5415 20.707 9.5 21.7484 9.5 23.0331C9.5 24.3178 10.5415 25.3593 11.8262 25.3593Z" fill="white"/>
<path fill-rule="evenodd" clip-rule="evenodd" d="M23.457 25.3593C24.7417 25.3593 25.7831 24.3178 25.7831 23.0331C25.7831 21.7484 24.7417 20.707 23.457 20.707C22.1723 20.707 21.1308 21.7484 21.1308 23.0331C21.1308 24.3178 22.1723 25.3593 23.457 25.3593Z" fill="white"/>
<path fill-rule="evenodd" clip-rule="evenodd" d="M5 4C6.933 4 8.5 3.77614 8.5 3.5C8.5 3.22386 6.933 3 5 3C3.067 3 1.5 3.22386 1.5 3.5C1.5 3.77614 3.067 4 5 4Z" fill="white"/>
<path fill-rule="evenodd" clip-rule="evenodd" d="M2.45442 2.65147C3.1177 2.55672 4.01745 2.5 5 2.5C5.98255 2.5 6.8823 2.55672 7.54558 2.65147C7.87345 2.69831 8.16489 2.75734 8.38495 2.83167C8.4917 2.86772 8.61185 2.91717 8.71511 2.98926C8.80017 3.04864 9 3.21275 9 3.5C9 3.78725 8.80017 3.95136 8.71511 4.01074C8.61185 4.08283 8.4917 4.13228 8.38495 4.16833C8.16489 4.24266 7.87345 4.30169 7.54558 4.34853C6.8823 4.44328 5.98255 4.5 5 4.5C4.01745 4.5 3.1177 4.44328 2.45442 4.34853C2.12655 4.30169 1.83511 4.24266 1.61505 4.16833C1.5083 4.13228 1.38815 4.08283 1.28489 4.01074C1.19983 3.95136 1 3.78725 1 3.5C1 3.21275 1.19983 3.04864 1.28489 2.98926C1.38815 2.91717 1.5083 2.86772 1.61505 2.83167C1.83511 2.75734 2.12655 2.69831 2.45442 2.65147Z" fill="white"/>
</g></symbol><symbol id="close" viewBox="0 0 24 25"><g fill="none">
<path fill-rule="evenodd" clip-rule="evenodd" d="M4.92961 18.1568C4.53909 18.5473 4.53909 19.1805 4.92961 19.571C5.32014 19.9615 5.9533 19.9615 6.34383 19.571L12.0008 13.914L17.658 19.5711C18.0485 19.9616 18.6817 19.9616 19.0722 19.5711C19.4627 19.1806 19.4627 18.5474 19.0722 18.1569L13.4151 12.4998L19.0717 6.84309C19.4623 6.45257 19.4623 5.8194 19.0717 5.42888C18.6812 5.03836 18.0481 5.03836 17.6575 5.42888L12.0008 11.0856L6.34427 5.42899C5.95374 5.03846 5.32058 5.03846 4.93005 5.42899C4.53953 5.81951 4.53953 6.45267 4.93005 6.8432L10.5866 12.4998L4.92961 18.1568Z" fill="#A0A0A4"/>
</g></symbol><symbol id="info" viewBox="0 0 20 20"><g fill="none">
<circle cx="10" cy="10" r="7.5" stroke="#A0A0A4"/>
<path d="M9.88867 7.58691C9.62826 7.58691 9.41504 7.51042 9.24902 7.35742C9.08301 7.20117 9 7.01074 9 6.78613C9 6.55501 9.08301 6.36621 9.24902 6.21973C9.41504 6.07324 9.62826 6 9.88867 6C10.1523 6 10.3656 6.07324 10.5283 6.21973C10.6943 6.36621 10.7773 6.55501 10.7773 6.78613C10.7773 7.02051 10.6943 7.21257 10.5283 7.3623C10.3656 7.51204 10.1523 7.58691 9.88867 7.58691ZM10.6504 13.3779H9.10742V8.37793H10.6504V13.3779Z" fill="#A0A0A4"/>
</g></symbol><symbol id="pen" viewBox="0 0 20 20"><g fill="none">
<path fill-rule="evenodd" clip-rule="evenodd" d="M13.1585 3.05991L16.9401 6.84154L6.72705 17.0546L2.73544 17.8529C2.38557 17.9229 2.07711 17.6144 2.14709 17.2646L2.94541 13.273L13.1585 3.05991ZM4.17707 13.9321L13.1585 4.95072L15.0493 6.84154L6.06789 15.8229L3.70436 16.2956L4.17707 13.9321Z" fill="#CB11AB"/>
<path fill-rule="evenodd" clip-rule="evenodd" d="M15.9948 7.78715L12.2132 4.00552L13.6313 2.5874C14.4145 1.8042 15.6843 1.8042 16.4675 2.5874L17.4129 3.53281C18.1961 4.31601 18.1961 5.58584 17.4129 6.36904L15.9948 7.78715ZM16.4675 5.42363C16.7286 5.16256 16.7286 4.73929 16.4675 4.47822L15.5221 3.53281C15.261 3.27174 14.8378 3.27174 14.5767 3.53281L14.104 4.00552L15.9948 5.89634L16.4675 5.42363Z" fill="#CB11AB"/>
</g></symbol><symbol id="person" viewBox="0 0 28 29"><g fill="none">
<path fill-rule="evenodd" clip-rule="evenodd" d="M18.5207 9.28873C18.5207 12.0587 16.4361 14.2066 14.006 14.2066C11.5759 14.2066 9.49117 12.0587 9.49117 9.31221C9.47931 6.60094 11.5878 4.5 14.006 4.5C16.4241 4.5 18.5207 6.55399 18.5207 9.28873ZM4.5 22.9977C4.5 23.9836 5.14326 24.5 6.94201 24.5H21.058C22.8567 24.5 23.5 23.9836 23.5 22.9977C23.5 20.1338 19.8429 16.1901 14.006 16.1901C8.15705 16.1901 4.5 20.1338 4.5 22.9977Z" fill="white"/>
</g></symbol></svg>