<svg xmlns="http://www.w3.org/2000/svg" xmlns:xlink="http://www.w3.org/1999/xlink"><defs>
<linearGradient id="paint0_linear_17_1070" x1="21.8594" y1="10.1229" x2="30.427" y2="10.1229" gradientUnits="userSpaceOnUse">
<stop stop-color="#00A3E1"/>
<stop offset="0.3042" stop-color="#009ADD"/>
<stop offset="0.7987" stop-color="#0082D4"/>
<stop offset="1" stop-color="#0076CF"/>
</linearGradient>

<clipPath id="clip0_13_122">
<rect width="28" height="28" fill="white" transform="translate(0.5 0.333252)"/>
</clipPath>

<linearGradient id="paint0_linear_7_2382" x1="4" y1="1.99994" x2="11" y2="20.9998" gradientUnits="userSpaceOnUse">
<stop stop-color="#0CD38B"/>
<stop offset="1" stop-color="#0CB477"/>
</linearGradient>
<linearGradient id="paint1_linear_7_2382" x1="9" y1="7.5" x2="10.5089" y2="15.8594" gradientUnits="userSpaceOnUse">
<stop stop-color="#0CD38B"/>
<stop offset="1" stop-color="#0CB477"/>
</linearGradient>
</defs><symbol id="card-icon-1" viewBox="0 0 32 25"><g fill="none">
<rect y="0.5" width="32" height="24" rx="4" fill="#F6F6FA"/>
<path d="M17.682 9.34377L15.8652 13.2583H15.6814V8.50031H13.0859V16.5024H15.238C15.8219 16.5024 16.341 16.1672 16.5898 15.6481L18.4174 11.7444H18.6012V16.5024H21.1966V8.50031H19.0121C18.4498 8.50031 17.9199 8.83553 17.682 9.34377Z" fill="#319B42"/>
<path d="M7.97268 9.54923L6.90207 13.2583H6.71823L5.6368 9.54923C5.45296 8.92204 4.8798 8.50031 4.23095 8.50031H1.66797V16.5024H4.26339V11.7444H4.44723L5.9396 16.5024H7.66988L9.16225 11.7444H9.34609V16.5024H11.9415V8.50031H9.37853C8.72968 8.50031 8.14571 8.92204 7.97268 9.54923Z" fill="#319B42"/>
<path d="M22.3247 12.0674V16.5024H24.9209V13.9063H27.7119C28.9235 13.9063 29.9512 13.1383 30.3298 12.0674H22.3247Z" fill="#319B42"/>
<path d="M27.636 8.50031H21.8594C22.2164 10.4041 23.8823 11.7454 25.8836 11.7454H30.3729C30.4054 11.5724 30.427 11.3776 30.427 11.1829C30.427 9.6361 29.183 8.50031 27.636 8.50031Z" fill="url(#paint0_linear_17_1070)"/>

</g></symbol><symbol id="card-icon-2" viewBox="0 0 32 25"><g fill="none">
<rect y="0.5" width="32" height="24" rx="4" fill="#F6F6FA"/>
<path fill-rule="evenodd" clip-rule="evenodd" d="M16.4709 10.6782C16.453 12.0858 17.7254 12.8713 18.6838 13.3384C19.6686 13.8176 19.9994 14.1249 19.9956 14.5534C19.9881 15.2093 19.21 15.4987 18.4818 15.51C17.2113 15.5297 16.4727 15.167 15.8855 14.8926L15.4279 17.0341C16.017 17.3057 17.108 17.5425 18.2394 17.5528C20.8949 17.5528 22.6323 16.242 22.6418 14.2095C22.6521 11.6301 19.0738 11.4873 19.0982 10.3343C19.1067 9.98472 19.4403 9.61163 20.1713 9.51674C20.5331 9.46886 21.532 9.43217 22.6643 9.95366L23.1087 7.88176C22.4998 7.65997 21.7171 7.44757 20.7427 7.44757C18.2431 7.44757 16.485 8.77627 16.4709 10.6782ZM27.3796 7.6261C26.8947 7.6261 26.4859 7.90899 26.3037 8.3431L22.5102 17.4006H25.1638L25.6919 15.9412H28.9347L29.241 17.4006H31.5799L29.5389 7.6261H27.3796ZM27.7507 10.2666L28.5165 13.9369H26.4192L27.7507 10.2666ZM13.2535 7.6261L11.1618 17.4006H13.6904L15.7812 7.6261H13.2535ZM9.51266 7.6261L6.88061 14.279L5.81595 8.62215C5.69101 7.99074 5.19768 7.6261 4.64982 7.6261H0.347122L0.286962 7.90992C1.17028 8.10159 2.17385 8.41077 2.78179 8.74153C3.15386 8.94353 3.2601 9.12018 3.38222 9.60037L5.39874 17.4006H8.07123L12.1682 7.6261H9.51266Z" fill="#1434CB"/>
</g></symbol><symbol id="card-icon-3" viewBox="0 0 32 25"><g fill="none">
<rect y="0.5" width="32" height="24" rx="4" fill="#F6F6FA"/>
<path fill-rule="evenodd" clip-rule="evenodd" d="M26.9337 16.8367V16.5649H26.8629L26.781 16.7514L26.6996 16.5649H26.6286V16.8367H26.6788V16.632L26.7554 16.8086H26.8075L26.884 16.6315V16.8367H26.9339H26.9337ZM26.4846 16.8367V16.6115H26.5752V16.5656H26.3438V16.6115H26.4343V16.8367H26.4846Z" fill="#F79410"/>
<path fill-rule="evenodd" clip-rule="evenodd" d="M18.8883 18.0014H12.7637V6.99463H18.8884L18.8883 18.0014Z" fill="#FF5F00"/>
<path fill-rule="evenodd" clip-rule="evenodd" d="M13.1515 12.4999C13.1515 10.2671 14.1969 8.27821 15.8248 6.99643C14.5928 6.02498 13.0681 5.49741 11.4992 5.49976C7.63356 5.49976 4.5 8.63376 4.5 12.4999C4.5 16.3659 7.63356 19.4999 11.4992 19.4999C13.0681 19.5023 14.5929 18.9747 15.8249 18.0032C14.1971 16.7217 13.1515 14.7327 13.1515 12.4999Z" fill="#EB001B"/>
<path fill-rule="evenodd" clip-rule="evenodd" d="M27.1497 12.4999C27.1497 16.3659 24.0161 19.4999 20.1505 19.4999C18.5814 19.5022 17.0565 18.9747 15.8242 18.0032C17.4526 16.7215 18.498 14.7327 18.498 12.4999C18.498 10.267 17.4526 8.27821 15.8242 6.99643C17.0564 6.02498 18.5813 5.49749 20.1504 5.49976C24.016 5.49976 27.1496 8.63376 27.1496 12.4999" fill="#F79410"/>
</g></symbol><symbol id="card-icon-4" viewBox="0 0 32 25"><g fill="none">
<rect y="0.5" width="32" height="24" rx="4" fill="#F6F6FA"/>
<path fill-rule="evenodd" clip-rule="evenodd" d="M18.8883 18.0017H12.7637V6.99487H18.8884L18.8883 18.0017Z" fill="#6C6BBD"/>
<path fill-rule="evenodd" clip-rule="evenodd" d="M13.1515 12.5001C13.1515 10.2674 14.1969 8.27845 15.8248 6.99668C14.5928 6.02523 13.0681 5.49766 11.4992 5.50001C7.63356 5.50001 4.5 8.63401 4.5 12.5001C4.5 16.3662 7.63356 19.5002 11.4992 19.5002C13.0681 19.5025 14.5929 18.9749 15.8249 18.0035C14.1971 16.7219 13.1515 14.7329 13.1515 12.5001Z" fill="#EB001B"/>
<path fill-rule="evenodd" clip-rule="evenodd" d="M27.1497 12.5001C27.1497 16.3662 24.0161 19.5002 20.1505 19.5002C18.5814 19.5024 17.0565 18.9749 15.8242 18.0035C17.4526 16.7217 18.498 14.7329 18.498 12.5001C18.498 10.2672 17.4526 8.27845 15.8242 6.99668C17.0564 6.02523 18.5813 5.49773 20.1504 5.50001C24.016 5.50001 27.1496 8.63401 27.1496 12.5001" fill="#0099DF"/>
</g></symbol><symbol id="cart" viewBox="0 0 28 29">
<path fill-rule="evenodd" clip-rule="evenodd" d="M11.2214 17.4665C11.3829 17.9206 11.8452 18.1949 12.3212 18.119L25.0874 16.0828C25.5004 16.017 25.8288 15.701 25.9106 15.2909L27.2654 8.49865C27.3875 7.88644 26.925 7.31324 26.3008 7.30317L8.94122 7.02324C8.24354 7.01199 7.74913 7.70067 7.98289 8.35812L11.2214 17.4665Z"/>
<path fill-rule="evenodd" clip-rule="evenodd" d="M11.8262 25.3593C13.1109 25.3593 14.1523 24.3178 14.1523 23.0331C14.1523 21.7484 13.1109 20.707 11.8262 20.707C10.5415 20.707 9.5 21.7484 9.5 23.0331C9.5 24.3178 10.5415 25.3593 11.8262 25.3593Z"/>
<path fill-rule="evenodd" clip-rule="evenodd" d="M23.457 25.3593C24.7417 25.3593 25.7831 24.3178 25.7831 23.0331C25.7831 21.7484 24.7417 20.707 23.457 20.707C22.1723 20.707 21.1308 21.7484 21.1308 23.0331C21.1308 24.3178 22.1723 25.3593 23.457 25.3593Z"/>
<path fill-rule="evenodd" clip-rule="evenodd" d="M5 4C6.933 4 8.5 3.77614 8.5 3.5C8.5 3.22386 6.933 3 5 3C3.067 3 1.5 3.22386 1.5 3.5C1.5 3.77614 3.067 4 5 4Z"/>
<path fill-rule="evenodd" clip-rule="evenodd" d="M2.45442 2.65147C3.1177 2.55672 4.01745 2.5 5 2.5C5.98255 2.5 6.8823 2.55672 7.54558 2.65147C7.87345 2.69831 8.16489 2.75734 8.38495 2.83167C8.4917 2.86772 8.61185 2.91717 8.71511 2.98926C8.80017 3.04864 9 3.21275 9 3.5C9 3.78725 8.80017 3.95136 8.71511 4.01074C8.61185 4.08283 8.4917 4.13228 8.38495 4.16833C8.16489 4.24266 7.87345 4.30169 7.54558 4.34853C6.8823 4.44328 5.98255 4.5 5 4.5C4.01745 4.5 3.1177 4.44328 2.45442 4.34853C2.12655 4.30169 1.83511 4.24266 1.61505 4.16833C1.5083 4.13228 1.38815 4.08283 1.28489 4.01074C1.19983 3.95136 1 3.78725 1 3.5C1 3.21275 1.19983 3.04864 1.28489 2.98926C1.38815 2.91717 1.5083 2.86772 1.61505 2.83167C1.83511 2.75734 2.12655 2.69831 2.45442 2.65147Z"/>
</symbol><symbol id="catalog" viewBox="0 0 29 29"><g fill="none">
<g clip-path="url(#clip0_13_122)">
<rect width="28" height="28" transform="translate(0.5 0.333252)" fill="white"/>
<path fill-rule="evenodd" clip-rule="evenodd" d="M20.2961 17.8333L23.1846 20.7217C23.2211 20.7583 23.2568 20.7955 23.2914 20.8333H27C27.8285 20.8333 28.5 20.1617 28.5 19.3333C28.5 18.5048 27.8285 17.8333 27 17.8333H20.2961ZM20.1278 8.83325C19.7007 7.73683 19.1026 6.72591 18.3662 5.83325H27C27.8285 5.83325 28.5 6.50482 28.5 7.33325C28.5 8.16168 27.8285 8.83325 27 8.83325H20.1278ZM20.8735 12.82C20.8735 12.4874 20.8587 12.1583 20.8298 11.8333H27C27.8285 11.8333 28.5 12.5048 28.5 13.3333C28.5 14.1617 27.8285 14.8333 27 14.8333H20.6891C20.8103 14.1799 20.8735 13.5068 20.8735 12.82Z" fill="#CCCCCC"/>
<path fill-rule="evenodd" clip-rule="evenodd" d="M4.3999 12.82C4.3999 9.78974 6.85639 7.33325 9.88663 7.33325C12.9169 7.33325 15.3734 9.78974 15.3734 12.82C15.3734 15.8502 12.9169 18.3067 9.88663 18.3067C6.85639 18.3067 4.3999 15.8502 4.3999 12.82ZM0.899902 12.82C0.899902 7.85675 4.9234 3.83325 9.88663 3.83325C14.8499 3.83325 18.8734 7.85675 18.8734 12.82C18.8734 14.1704 18.5755 15.4513 18.0419 16.6004C17.7159 17.3024 17.7875 18.1533 18.3348 18.7006L21.7702 22.136C22.3872 22.753 22.3872 23.7535 21.7702 24.3705C21.1531 24.9876 20.1527 24.9876 19.5356 24.3705L16.2116 21.0465C15.6412 20.4761 14.7457 20.4241 14.0301 20.7966C12.7903 21.4419 11.3811 21.8067 9.88663 21.8067C4.9234 21.8067 0.899902 17.7832 0.899902 12.82Z" fill="#CCCCCC"/>
</g>

</g></symbol><symbol id="close" viewBox="0 0 24 25"><g fill="none">
<path fill-rule="evenodd" clip-rule="evenodd" d="M4.92961 18.1568C4.53909 18.5473 4.53909 19.1805 4.92961 19.571C5.32014 19.9615 5.9533 19.9615 6.34383 19.571L12.0008 13.914L17.658 19.5711C18.0485 19.9616 18.6817 19.9616 19.0722 19.5711C19.4627 19.1806 19.4627 18.5474 19.0722 18.1569L13.4151 12.4998L19.0717 6.84309C19.4623 6.45257 19.4623 5.8194 19.0717 5.42888C18.6812 5.03836 18.0481 5.03836 17.6575 5.42888L12.0008 11.0856L6.34427 5.42899C5.95374 5.03846 5.32058 5.03846 4.93005 5.42899C4.53953 5.81951 4.53953 6.45267 4.93005 6.8432L10.5866 12.4998L4.92961 18.1568Z" fill="#A0A0A4"/>
</g></symbol><symbol id="heart" viewBox="0 0 29 29"><g fill="none">
<path d="M14.9791 23.7496C14.6019 24.0835 14.0344 24.0835 13.6576 23.7491C8.25224 18.9528 3.5 14.2808 3.5 10.3115C3.5 6.94183 6.11818 4.33325 9.50011 4.33325C11.1584 4.33325 12.8167 5.02852 14.007 6.18601C14.2282 6.40108 14.59 6.40108 14.8112 6.18601C16.0015 5.02852 17.6599 4.33325 19.3182 4.33325C22.7 4.33325 25.3182 6.94183 25.3182 10.3115C25.3182 14.2809 20.3979 18.9531 14.9791 23.7496Z" fill="#CCCCCC"/>
</g></symbol><symbol id="info" viewBox="0 0 20 20"><g fill="none">
<circle cx="10" cy="10" r="7.5" stroke="#A0A0A4"/>
<path d="M9.88867 7.58691C9.62826 7.58691 9.41504 7.51042 9.24902 7.35742C9.08301 7.20117 9 7.01074 9 6.78613C9 6.55501 9.08301 6.36621 9.24902 6.21973C9.41504 6.07324 9.62826 6 9.88867 6C10.1523 6 10.3656 6.07324 10.5283 6.21973C10.6943 6.36621 10.7773 6.55501 10.7773 6.78613C10.7773 7.02051 10.6943 7.21257 10.5283 7.3623C10.3656 7.51204 10.1523 7.58691 9.88867 7.58691ZM10.6504 13.3779H9.10742V8.37793H10.6504V13.3779Z" fill="#A0A0A4"/>
</g></symbol><symbol id="main" viewBox="0 0 28 29"><g fill="none">
<path fill-rule="evenodd" clip-rule="evenodd" d="M3.39249 13.7635C2.43526 14.7047 3.10172 16.333 4.44418 16.333H4.99997V22.3332C4.99997 23.4378 5.89541 24.3332 6.99997 24.3332H11.25C11.5261 24.3332 11.75 24.1093 11.75 23.8332V20.7433C11.75 19.6387 12.6454 18.7433 13.75 18.7433H14.25C15.3545 18.7433 16.25 19.6387 16.25 20.7433V23.8332C16.25 24.1093 16.4738 24.3332 16.75 24.3332H21C22.1045 24.3332 23 23.4378 23 22.3332V16.333H23.3787C24.7151 16.333 25.3843 14.7173 24.4393 13.7724L14.7012 4.03434C14.313 3.64615 13.6844 3.6435 13.2929 4.02842L3.39249 13.7635Z" fill="#CCCCCC"/>
</g></symbol><symbol id="pen" viewBox="0 0 20 20"><g fill="none">
<path fill-rule="evenodd" clip-rule="evenodd" d="M13.1585 3.05991L16.9401 6.84154L6.72705 17.0546L2.73544 17.8529C2.38557 17.9229 2.07711 17.6144 2.14709 17.2646L2.94541 13.273L13.1585 3.05991ZM4.17707 13.9321L13.1585 4.95072L15.0493 6.84154L6.06789 15.8229L3.70436 16.2956L4.17707 13.9321Z" fill="#CB11AB"/>
<path fill-rule="evenodd" clip-rule="evenodd" d="M15.9948 7.78715L12.2132 4.00552L13.6313 2.5874C14.4145 1.8042 15.6843 1.8042 16.4675 2.5874L17.4129 3.53281C18.1961 4.31601 18.1961 5.58584 17.4129 6.36904L15.9948 7.78715ZM16.4675 5.42363C16.7286 5.16256 16.7286 4.73929 16.4675 4.47822L15.5221 3.53281C15.261 3.27174 14.8378 3.27174 14.5767 3.53281L14.104 4.00552L15.9948 5.89634L16.4675 5.42363Z" fill="#CB11AB"/>
</g></symbol><symbol id="person" viewBox="0 0 28 29">
<path fill-rule="evenodd" clip-rule="evenodd" d="M18.5207 9.28873C18.5207 12.0587 16.4361 14.2066 14.006 14.2066C11.5759 14.2066 9.49117 12.0587 9.49117 9.31221C9.47931 6.60094 11.5878 4.5 14.006 4.5C16.4241 4.5 18.5207 6.55399 18.5207 9.28873ZM4.5 22.9977C4.5 23.9836 5.14326 24.5 6.94201 24.5H21.058C22.8567 24.5 23.5 23.9836 23.5 22.9977C23.5 20.1338 19.8429 16.1901 14.006 16.1901C8.15705 16.1901 4.5 20.1338 4.5 22.9977Z"/>
</symbol><symbol id="sber" viewBox="0 0 22 22"><g fill="none">
<path fill-rule="evenodd" clip-rule="evenodd" d="M1 10.9998C1 16.5226 5.47715 20.9998 11 20.9998C16.5228 20.9998 21 16.5226 21 10.9998C21 5.47691 16.5228 0.999756 11 0.999756C5.47715 0.999756 1 5.47691 1 10.9998ZM19.1818 10.9997C19.1818 15.5184 15.5187 19.1816 11 19.1816C6.48128 19.1816 2.81815 15.5184 2.81815 10.9997C2.81815 6.48103 6.48128 2.81791 11 2.81791C15.5187 2.81791 19.1818 6.48103 19.1818 10.9997Z" fill="url(#paint0_linear_7_2382)"/>
<path fill-rule="evenodd" clip-rule="evenodd" d="M6.98273 9.6548C7.40206 9.29538 8.03336 9.34394 8.39278 9.76327L10.6286 12.3717L14.6826 7.58061C15.0394 7.15901 15.6704 7.10643 16.092 7.46317C16.5136 7.81991 16.5662 8.45089 16.2094 8.8725L11.7761 14.1118C11.1795 14.817 10.0933 14.8204 9.49219 14.1191L6.87427 11.0648C6.51485 10.6455 6.56341 10.0142 6.98273 9.6548Z" fill="url(#paint1_linear_7_2382)"/>

</g></symbol><symbol id="star" viewBox="0 0 12 12"><g fill="none">
<path fill-rule="evenodd" clip-rule="evenodd" d="M6.69769 1.14922C6.43817 0.528396 5.56198 0.528387 5.30244 1.14919L6.69769 1.14922ZM5.30244 1.14919L4.14719 3.90977L1.19202 4.16613C0.519264 4.22467 0.262282 5.05966 0.759713 5.49464L3.00514 7.45915L2.33207 10.3824C2.18436 11.0238 2.87792 11.5567 3.46133 11.2023L6.00032 9.65611L8.53797 11.2015C9.12269 11.5588 9.81568 11.0227 9.66861 10.3826L8.99549 7.45915L11.2402 5.49537C11.7385 5.05961 11.4793 4.22519 10.8083 4.16667L7.85294 3.91029L6.69769 1.14922" fill="#FF970D"/>
</g></symbol></svg>